<?xml version="1.0" encoding="utf-8"?>
<!-- Generator: Adobe Illustrator 22.1.0, SVG Export Plug-In . SVG Version: 6.00 Build 0)  -->
<svg version="1.1" id="Layer_1" xmlns="http://www.w3.org/2000/svg" xmlns:xlink="http://www.w3.org/1999/xlink" x="0px" y="0px"
	 viewBox="0 0 488.2 53.4" style="enable-background:new 0 0 488.2 53.4;" xml:space="preserve">
<style type="text/css">
	.st0{fill:#2E2E2E;}
	.st1{fill:#F5F5F5;}
	.st2{fill:#FFFFFF;}
</style>
<g>
	<path class="st0" d="M17.7,0.5c10.5,0,16.4,5.5,16.4,15.6c0,11.7-7.6,19-20.2,19H8.1v1.2l0.4,16.4H0L0.6,37L0,0.6L17.7,0.5z
		 M16.3,28.6c5.9-1.1,9.1-5.1,9.1-11.8c0-6.6-3.4-9.5-10-9.7L8.5,7.3L8.2,28.4L16.3,28.6z"/>
	<path class="st0" d="M75.1,52.7l-1.2-5.8l-2.3-7.2l-11-0.2l-10,0.2l-2.4,6.8l-1.3,6.3h-8.4L57.1,0.6h9.8l16.8,52.1H75.1z M62.1,8.8
		h-0.6l-8.5,24l8.2,0.2l8.4-0.2L62.1,8.8z"/>
	<path class="st0" d="M130.9,3.6l-1.5,7.4l-0.8,0.2c-3.3-2.6-7.4-4.2-12-4.2c-9.5,0-14.7,6.4-14.7,19.2c0,13.2,5.4,20.1,14.7,20.1
		c4.5,0,9.3-1.6,13-4.5l0.8,0.5l-0.7,7.6c-4.5,2.2-8.8,3.4-13.8,3.4c-14.6,0-22.8-9.4-22.8-26.2C93,9.7,101.7,0,116.8,0
		C122.2,0,127,1.3,130.9,3.6z"/>
	<path class="st0" d="M154.4,52.7h-8.5l0.6-15.7l-0.6-36.5h8.6L154,36.3L154.4,52.7z"/>
	<path class="st0" d="M183.3,23.9l8.2,0.2l8.6-0.2l0.6,0.7l-0.6,6.3l-9.3-0.2l-7.6,0.1l-0.1,5.6l0.4,16.4H175l0.6-15.7L175,0.6h29.2
		l0.6,0.7l-0.7,6.6l-12.2-0.5l-8.4,0.1L183.3,23.9z"/>
	<path class="st0" d="M226,52.7h-8.5l0.6-15.7l-0.6-36.5h8.6l-0.5,35.7L226,52.7z"/>
	<path class="st0" d="M279.3,3.6l-1.5,7.4l-0.8,0.2c-3.3-2.6-7.4-4.2-12-4.2c-9.5,0-14.7,6.4-14.7,19.2c0,13.2,5.4,20.1,14.7,20.1
		c4.5,0,9.3-1.6,13-4.5l0.8,0.5l-0.7,7.6c-4.5,2.2-8.8,3.4-13.8,3.4c-14.6,0-22.8-9.4-22.8-26.2c0-17.4,8.7-27.1,23.8-27.1
		C270.7,0,275.4,1.3,279.3,3.6z"/>
	<path class="st0" d="M331.8,52.7l-6.6-22.6h-0.8l-6.5,22.6h-14L290.2,0.3H303l0.8,7.1l7.6,31.8h0.8l7.7-26.5l-3.2-12.5H330l1.1,8.4
		l7.9,30.5h0.8l8.9-31.1l1.4-7.9h12.2l-16.6,52.4H331.8z"/>
	<path class="st0" d="M385.8,52.7h-13.2l0.7-15.5l-0.7-36.9h13.5l-0.7,35.6L385.8,52.7z"/>
	<path class="st0" d="M431.2,52.7h-29.5l0.7-15.5l-0.7-36.9h13.4l-0.7,35.6l0.2,6h16.7l0.8,1L431.2,52.7z"/>
	<path class="st0" d="M464.5,0c15.4,0,23.7,8.7,23.7,24.4c0,18.6-9.6,28.9-27,28.9c-4.5,0-13.2-0.3-18.8-0.6h-0.1l0.7-15.5
		l-0.7-36.9h0.1L464.5,0z M474.5,27.6c0-12.4-3.3-17.2-11-17.2c-1.6,0-5.2,0.1-7.9,0.3l-0.5,25.2l0.2,6.8c3,0.4,6.8,0.6,8.4,0.6
		C470.5,43.4,474.5,38.9,474.5,27.6z"/>
</g>
</svg>
