<?xml version="1.0" encoding="utf-8"?>
<!-- Generator: Adobe Illustrator 22.1.0, SVG Export Plug-In . SVG Version: 6.00 Build 0)  -->
<svg version="1.1" id="Layer_1" xmlns="http://www.w3.org/2000/svg" xmlns:xlink="http://www.w3.org/1999/xlink" x="0px" y="0px"
	 viewBox="0 0 216 216" style="enable-background:new 0 0 216 216;" xml:space="preserve">
<style type="text/css">
	.st0{fill:#2E2E2E;}
	.st1{fill:#F5F5F5;}
	.st2{fill:#FFFFFF;}
</style>
<rect class="st0" width="216" height="216"/>
<path id="XMLID_75_" class="st1" d="M108,21.8c-47.6,0-86.2,38.6-86.2,86.2s38.6,86.2,86.2,86.2c47.6,0,86.2-38.6,86.2-86.2
	S155.6,21.8,108,21.8z M153.8,168.5c0,0-18.6,15.7-45.8,15.5c-41.5,0-75.4-33.8-75.4-75.2C32.4,90,39.9,71.8,50.5,59.9
	c1.4-1.5,3.5-3.9,5.5-4.2c5.2-0.9,11-0.4,16.6-1c7.6-0.8,7.2-2,11.7-7.5c4.6-5.4,16.4-5,18.2-1c1.8,4,1.1,9.1,4.2,10
	c3,1,13.1,3,19.3,8.1c6.2,5.1,5,13,11.6,16.1c6.6,3.1,12.2,5.6,14.5,6.9c2.4,1.4,3.3,2.4,3.7,3.6c0.4,1.2-0.1,4-1.2,6.8
	c-1.1,2.7-2.1,4.7-3.3,5.4s-9.4,0.3-12.3,0c-3-0.3-6.3-1.3-7.7-1c-1.3,0.2-1.5,2.8-0.2,4c1.2,1.2,5.3,2.5,7.6,2.7
	c4.1,0.5,8.7,0.4,9.5,0.9c0.8,0.5-1.5,5.2-4.6,6.1c-1.7,0.5-9.4,1-16.5,0.9c-5.4-0.1-14.3-0.5-15.9-1.2s-1.3-5.5-2.6-5.5
	c-4.1,0.3-2.9,4.9-15.4,7c-2.4,0.5-11.4,1.5-15.4,2c-7.1,1-15.5,4.1-21.4,4.7c-9.3,0.9-8.8,1.6-9.3,2.8c-0.3,0.8,0.1,2.3,0.9,2.8
	c0.5,0.3,1.6,0.1,2.4-0.1c2.2-0.6,6.4,0.8,9.9,3.5s8.8,5.6,9.1,6c0.5,0.5-0.3,1.9-1.2,1.9c-5.9,0.1-15.3-3.7-16.5-5.9
	c-1.3-2.3-3-1-3.5,0.6c-0.4,1.5,0.5,2.9,1.6,4.5c1.9,2.6,10,6.4,16.1,9c6.1,2.6,15.8,4.8,15.8,4.8c2.5,2.6,5.9,9.4,9.1,10.6
	s6.3,3,8.6,2.9c2.3-0.1,0.1-8.4-0.6-11.5c0,0,13.3,1.4,17.9,1.2c4.6-0.2,8.7-0.8,15.8-2.4c0,0,13.3,9.2,13.5,6.4
	c0-2.3,0.2-5.7,0-7.3c-0.1-1-1-2.9-1-2.9c7.8-3.1,15-10.4,17.7-16.2c2.7-5.8,3.2-14.1,2.8-20.3c-0.6-9-4.4-20.8-2.9-23.5
	s4.2-2.8,8.1-4.6c3.9-1.7,7.8-3.8,7.8-3.8c1.1,2.8,2.5,8.4,2.5,8.4c2.1,8.6,3.8,22.6-0.9,39.1C176.9,142.4,169.4,156.2,153.8,168.5z
	"/>
</svg>
