<?xml version="1.0" encoding="utf-8"?>
<!-- Generator: Adobe Illustrator 22.1.0, SVG Export Plug-In . SVG Version: 6.00 Build 0)  -->
<svg version="1.1" id="Layer_1" xmlns="http://www.w3.org/2000/svg" xmlns:xlink="http://www.w3.org/1999/xlink" x="0px" y="0px"
	 viewBox="0 0 216 268" style="enable-background:new 0 0 216 268;" xml:space="preserve">
<style type="text/css">
	.st0{fill:#2E2E2E;}
	.st1{fill:#F5F5F5;}
	.st2{fill:#FFFFFF;}
</style>
<g>
	<rect class="st0" width="216" height="268"/>
	<path class="st2" d="M196.3,125.5c0,48.8-39.5,88.3-88.3,88.3s-88.3-39.5-88.3-88.3S59.2,37.1,108,37.1S196.3,76.7,196.3,125.5z
		 M139.4,126.5c-2.3-0.3-6.5-1.6-7.8-2.8c-1.3-1.2-1.1-3.8,0.2-4.1c1.4-0.2,4.8,0.7,7.9,1c3.1,0.3,11.4,0.7,12.7,0
		c1.3-0.7,2.3-2.7,3.4-5.5c1.1-2.8,1.6-5.7,1.2-6.9s-1.3-2.3-3.8-3.7c-2.4-1.4-8.2-3.9-14.9-7.1c-6.7-3.2-5.5-11.3-11.9-16.5
		s-16.7-7.4-19.8-8.3c-3.1-1-2.5-6.2-4.3-10.3c-1.8-4.1-14-4.6-18.6,1c-4.7,5.6-4.3,6.8-12,7.7c-5.7,0.6-11.7,0.1-17,1
		c-2.1,0.3-4.2,2.8-5.6,4.3C38.2,88.3,30.6,107,30.7,126.3c0,42.5,34.8,77,77.3,77c27.9,0.2,46.9-15.9,46.9-15.9
		c16-12.6,23.6-26.8,27.2-39.6c4.8-16.8,3.1-31.2,0.9-40c0,0-1.4-5.7-2.6-8.6c0,0-4.1,2.1-8,3.9c-4,1.8-6.7,2-8.3,4.7
		c-1.6,2.7,2.4,14.8,3,24.1c0.4,6.3-0.2,14.8-2.9,20.8c-2.8,6-10.2,13.4-18.1,16.6c0,0,0.9,1.9,1,2.9c0.2,1.7,0,5.2,0,7.5
		c-0.2,2.9-13.9-6.5-13.9-6.5c-7.2,1.7-11.4,2.3-16.2,2.5c-4.8,0.2-18.4-1.2-18.4-1.2c0.7,3.2,3,11.7,0.6,11.8
		c-2.4,0.1-5.5-1.8-8.8-3c-3.3-1.2-6.8-8.2-9.3-10.9c0,0-10-2.3-16.2-4.9c-6.3-2.6-14.5-6.6-16.4-9.2c-1.2-1.7-2.1-3-1.7-4.6
		s2.3-3,3.6-0.6c1.2,2.3,10.9,6.2,17,6.1c0.9,0,1.7-1.4,1.3-1.9c-0.3-0.4-5.8-3.4-9.3-6.1c-3.5-2.8-7.9-4.2-10.1-3.6
		c-0.9,0.2-2,0.4-2.5,0.1c-0.9-0.6-1.2-2.1-1-2.9c0.5-1.3,0-2,9.5-2.9c6.1-0.6,14.7-3.8,22-4.8c4-0.6,13.2-1.6,15.8-2.1
		c12.8-2.1,11.6-6.9,15.7-7.2c1.3,0,1,5,2.7,5.7c1.6,0.6,10.7,1.1,16.3,1.2c7.3,0.1,15.2-0.4,16.9-0.9c3.2-0.9,5.5-5.7,4.7-6.2
		S143.6,127,139.4,126.5z"/>
	<g>
		<path class="st2" d="M23.5,230.3c3.9,0,6.1,2.1,6.1,5.8c0,4.4-2.8,7.1-7.5,7.1H20v0.5l0.2,6.1h-3.2l0.2-5.8l-0.2-13.6L23.5,230.3z
			 M23,240.8c2.2-0.4,3.4-1.9,3.4-4.4c0-2.5-1.3-3.5-3.7-3.6l-2.6,0.1l-0.1,7.9L23,240.8z"/>
		<path class="st2" d="M45,249.8l-0.5-2.2l-0.8-2.7l-4.1-0.1l-3.7,0.1l-0.9,2.5l-0.5,2.3h-3.1l6.9-19.5h3.7l6.3,19.5H45z
			 M40.1,233.4h-0.2l-3.2,9l3.1,0.1l3.1-0.1L40.1,233.4z"/>
		<path class="st2" d="M65.8,231.5l-0.6,2.8l-0.3,0.1c-1.2-1-2.8-1.6-4.5-1.6c-3.5,0-5.5,2.4-5.5,7.2c0,4.9,2,7.5,5.5,7.5
			c1.7,0,3.5-0.6,4.8-1.7l0.3,0.2l-0.2,2.8c-1.7,0.8-3.3,1.3-5.2,1.3c-5.5,0-8.5-3.5-8.5-9.8c0-6.5,3.2-10.1,8.9-10.1
			C62.5,230.1,64.3,230.6,65.8,231.5z"/>
		<path class="st2" d="M74.5,249.8h-3.2l0.2-5.8l-0.2-13.6h3.2l-0.2,13.3L74.5,249.8z"/>
		<path class="st2" d="M85.3,239l3.1,0.1l3.2-0.1l0.2,0.3l-0.2,2.4l-3.5-0.1l-2.8,0l0,2.1l0.2,6.1h-3.2l0.2-5.8l-0.2-13.6h10.9
			l0.2,0.3l-0.2,2.5l-4.5-0.2l-3.1,0L85.3,239z"/>
		<path class="st2" d="M101.3,249.8h-3.2l0.2-5.8l-0.2-13.6h3.2l-0.2,13.3L101.3,249.8z"/>
		<path class="st2" d="M121.1,231.5l-0.6,2.8l-0.3,0.1c-1.2-1-2.8-1.6-4.5-1.6c-3.5,0-5.5,2.4-5.5,7.2c0,4.9,2,7.5,5.5,7.5
			c1.7,0,3.5-0.6,4.8-1.7l0.3,0.2l-0.2,2.8c-1.7,0.8-3.3,1.3-5.2,1.3c-5.5,0-8.5-3.5-8.5-9.8c0-6.5,3.2-10.1,8.9-10.1
			C117.9,230.1,119.7,230.6,121.1,231.5z"/>
		<path class="st2" d="M140.7,249.8l-2.5-8.4h-0.3l-2.4,8.4h-5.2l-5.1-19.5h4.8l0.3,2.7l2.8,11.9h0.3l2.9-9.9l-1.2-4.7h5l0.4,3.2
			l2.9,11.4h0.3l3.3-11.6l0.5-2.9h4.5l-6.2,19.5H140.7z"/>
		<path class="st2" d="M160.9,249.8h-4.9l0.3-5.8l-0.3-13.8h5l-0.3,13.3L160.9,249.8z"/>
		<path class="st2" d="M177.8,249.8h-11l0.3-5.8l-0.3-13.8h5l-0.3,13.3l0.1,2.2h6.2l0.3,0.4L177.8,249.8z"/>
		<path class="st2" d="M190.2,230.1c5.7,0,8.8,3.2,8.8,9.1c0,6.9-3.6,10.8-10.1,10.8c-1.7,0-4.9-0.1-7-0.2h0l0.3-5.8l-0.3-13.8h0
			L190.2,230.1z M193.9,240.4c0-4.6-1.2-6.4-4.1-6.4c-0.6,0-1.9,0-2.9,0.1l-0.2,9.4l0.1,2.5c1.1,0.2,2.5,0.2,3.2,0.2
			C192.4,246.3,193.9,244.6,193.9,240.4z"/>
	</g>
</g>
</svg>
