<?xml version="1.0" encoding="utf-8"?>
<!-- Generator: Adobe Illustrator 22.1.0, SVG Export Plug-In . SVG Version: 6.00 Build 0)  -->
<svg version="1.1" id="Layer_1" xmlns="http://www.w3.org/2000/svg" xmlns:xlink="http://www.w3.org/1999/xlink" x="0px" y="0px"
	 viewBox="0 0 216 268" style="enable-background:new 0 0 216 268;" xml:space="preserve">
<style type="text/css">
	.st0{fill:#2E2E2E;}
	.st1{fill:#F5F5F5;}
	.st2{fill:#FFFFFF;}
</style>
<path class="st1" d="M216,268H0V0h216V268z M108,37.1c-48.8,0-88.3,39.5-88.3,88.3s39.5,88.3,88.3,88.3s88.3-39.5,88.3-88.3
	S156.8,37.1,108,37.1z M149.2,127.4c0.8,0.5-1.5,5.3-4.7,6.2c-1.7,0.5-9.6,1-16.9,0.9c-5.5-0.1-14.7-0.6-16.3-1.2
	c-1.6-0.6-1.3-5.6-2.7-5.7c-4.2,0.3-3,5.1-15.7,7.2c-2.5,0.5-11.7,1.5-15.8,2.1c-7.3,1.1-15.8,4.2-22,4.8c-9.5,0.9-9,1.7-9.5,2.9
	c-0.3,0.8,0.1,2.3,1,2.9c0.5,0.3,1.6,0.1,2.5-0.1c2.3-0.6,6.6,0.8,10.1,3.6c3.5,2.8,9,5.7,9.3,6.1c0.5,0.6-0.4,2-1.3,1.9
	c-6,0.1-15.7-3.8-17-6.1c-1.3-2.4-3.1-1-3.6,0.6s0.5,2.9,1.7,4.6c1.9,2.6,10.2,6.6,16.4,9.2c6.3,2.6,16.2,4.9,16.2,4.9
	c2.6,2.7,6,9.7,9.3,10.9c3.3,1.2,6.4,3.1,8.8,3c2.4-0.1,0.1-8.6-0.6-11.8c0,0,13.6,1.5,18.4,1.2c4.8-0.2,9-0.8,16.2-2.5
	c0,0,13.6,9.5,13.9,6.5c0-2.4,0.2-5.9,0-7.5c-0.1-1-1-2.9-1-2.9c7.9-3.2,15.4-10.6,18.1-16.6c2.8-6,3.3-14.5,2.9-20.8
	c-0.6-9.2-4.5-21.4-3-24.1c1.6-2.7,4.3-2.9,8.3-4.7c4-1.8,8-3.9,8-3.9c1.1,2.9,2.6,8.6,2.6,8.6c2.2,8.8,3.9,23.2-0.9,40
	c-3.6,12.8-11.3,27-27.2,39.6c0,0-19,16.1-46.9,15.9c-42.5,0-77.3-34.6-77.3-77c-0.2-19.3,7.5-38,18.4-50.1c1.4-1.5,3.6-4,5.6-4.3
	c5.3-0.9,11.3-0.4,17-1c7.8-0.8,7.4-2.1,12-7.7c4.7-5.6,16.8-5.1,18.6-1c1.8,4.1,1.2,9.3,4.3,10.3c3.1,1,13.4,3.1,19.8,8.3
	s5.2,13.3,11.9,16.5c6.7,3.2,12.5,5.7,14.9,7.1c2.4,1.4,3.3,2.5,3.8,3.7s-0.1,4.1-1.2,6.9c-1.1,2.8-2.1,4.8-3.4,5.5
	c-1.3,0.7-9.6,0.3-12.7,0c-3.1-0.3-6.5-1.3-7.9-1c-1.4,0.2-1.5,2.9-0.2,4.1c1.3,1.2,5.4,2.5,7.8,2.8
	C143.6,127,148.4,126.9,149.2,127.4z M16.9,230.3l0.2,13.6l-0.2,5.8h3.2l-0.2-6.1v-0.5h2.2c4.7,0,7.5-2.7,7.5-7.1
	c0-3.8-2.2-5.8-6.1-5.8L16.9,230.3z M20,240.7l0.1-7.9l2.6-0.1c2.5,0.1,3.7,1.2,3.7,3.6c0,2.5-1.2,4-3.4,4.4L20,240.7z M48.2,249.8
	l-6.3-19.5h-3.7l-6.9,19.5h3.1l0.5-2.3l0.9-2.5l3.7-0.1l4.1,0.1l0.8,2.7l0.5,2.2H48.2z M42.9,242.4l-3.1,0.1l-3.1-0.1l3.2-9h0.2
	L42.9,242.4z M60.5,230.1c-5.6,0-8.9,3.6-8.9,10.1c0,6.3,3.1,9.8,8.5,9.8c1.9,0,3.5-0.5,5.2-1.3l0.2-2.8l-0.3-0.2
	c-1.4,1.1-3.2,1.7-4.8,1.7c-3.5,0-5.5-2.5-5.5-7.5c0-4.8,1.9-7.2,5.5-7.2c1.7,0,3.2,0.6,4.5,1.6l0.3-0.1l0.6-2.8
	C64.3,230.6,62.5,230.1,60.5,230.1z M74.4,243.7l0.2-13.3h-3.2l0.2,13.6l-0.2,5.8h3.2L74.4,243.7z M85.4,232.9l3.1,0l4.5,0.2
	l0.2-2.5l-0.2-0.3H82.2l0.2,13.6l-0.2,5.8h3.2l-0.2-6.1l0-2.1l2.8,0l3.5,0.1l0.2-2.4l-0.2-0.3l-3.2,0.1l-3.1-0.1L85.4,232.9z
	 M101.1,243.7l0.2-13.3h-3.2l0.2,13.6l-0.2,5.8h3.2L101.1,243.7z M115.9,230.1c-5.6,0-8.9,3.6-8.9,10.1c0,6.3,3.1,9.8,8.5,9.8
	c1.9,0,3.5-0.5,5.2-1.3l0.2-2.8l-0.3-0.2c-1.4,1.1-3.2,1.7-4.8,1.7c-3.5,0-5.5-2.5-5.5-7.5c0-4.8,1.9-7.2,5.5-7.2
	c1.7,0,3.2,0.6,4.5,1.6l0.3-0.1l0.6-2.8C119.7,230.6,117.9,230.1,115.9,230.1z M145.9,249.8l6.2-19.5h-4.5l-0.5,2.9l-3.3,11.6h-0.3
	l-2.9-11.4l-0.4-3.2h-5l1.2,4.7l-2.9,9.9h-0.3l-2.8-11.9l-0.3-2.7h-4.8l5.1,19.5h5.2l2.4-8.4h0.3l2.5,8.4H145.9z M160.7,243.5
	l0.3-13.3h-5l0.3,13.8l-0.3,5.8h4.9L160.7,243.5z M178.1,246.1l-0.3-0.4h-6.2l-0.1-2.2l0.3-13.3h-5l0.3,13.8l-0.3,5.8h11
	L178.1,246.1z M182,230.2L182,230.2l0.2,13.8l-0.3,5.8h0c2.1,0.1,5.3,0.2,7,0.2c6.5,0,10.1-3.8,10.1-10.8c0-5.9-3.1-9.1-8.8-9.1
	L182,230.2z M189.9,246.3c-0.6,0-2-0.1-3.2-0.2l-0.1-2.5l0.2-9.4c1-0.1,2.3-0.1,2.9-0.1c2.9,0,4.1,1.8,4.1,6.4
	C193.9,244.6,192.4,246.3,189.9,246.3z"/>
</svg>
