<?xml version="1.0" encoding="utf-8"?>
<!-- Generator: Adobe Illustrator 22.1.0, SVG Export Plug-In . SVG Version: 6.00 Build 0)  -->
<svg version="1.1" id="Layer_1" xmlns="http://www.w3.org/2000/svg" xmlns:xlink="http://www.w3.org/1999/xlink" x="0px" y="0px"
	 viewBox="0 0 762 257" style="enable-background:new 0 0 762 257;" xml:space="preserve">
<style type="text/css">
	.st0{fill:#2E2E2E;}
	.st1{fill:#F5F5F5;}
	.st2{fill:#FFFFFF;}
</style>
<g>
	<rect id="XMLID_599_" class="st0" width="762" height="257"/>
	<g>
		<path id="XMLID_123_" class="st1" d="M127,42.3c-47.6,0-86.2,38.6-86.2,86.2s38.6,86.2,86.2,86.2c47.6,0,86.2-38.6,86.2-86.2
			S174.6,42.3,127,42.3z M172.8,189c0,0-18.6,15.7-45.8,15.5c-41.5,0-75.4-33.8-75.4-75.2c-0.2-18.8,7.3-37.1,17.9-48.9
			c1.4-1.5,3.5-3.9,5.5-4.2c5.2-0.9,11-0.4,16.6-1c7.6-0.8,7.2-2,11.7-7.5c4.6-5.4,16.4-5,18.2-1c1.8,4,1.1,9.1,4.2,10
			c3,1,13.1,3,19.3,8.1c6.2,5.1,5,13,11.6,16.1c6.6,3.1,12.2,5.6,14.5,6.9c2.4,1.4,3.3,2.4,3.7,3.6c0.4,1.2-0.1,4-1.2,6.8
			c-1.1,2.7-2.1,4.7-3.3,5.4s-9.4,0.3-12.3,0c-3-0.3-6.3-1.3-7.7-1c-1.3,0.2-1.5,2.8-0.2,4c1.2,1.2,5.3,2.5,7.6,2.7
			c4.1,0.5,8.7,0.4,9.5,0.9c0.8,0.5-1.5,5.2-4.6,6.1c-1.7,0.5-9.4,1-16.5,0.9c-5.4-0.1-14.3-0.5-15.9-1.2s-1.3-5.5-2.6-5.5
			c-4.1,0.3-2.9,4.9-15.4,7c-2.4,0.5-11.4,1.5-15.4,2c-7.1,1-15.5,4.1-21.4,4.7c-9.3,0.9-8.8,1.6-9.3,2.8c-0.3,0.8,0.1,2.3,0.9,2.8
			c0.5,0.3,1.6,0.1,2.4-0.1c2.2-0.6,6.4,0.8,9.9,3.5s8.8,5.6,9.1,6c0.5,0.5-0.3,1.9-1.2,1.9c-5.9,0.1-15.3-3.7-16.5-5.9
			c-1.3-2.3-3-1-3.5,0.6c-0.4,1.5,0.5,2.9,1.6,4.5c1.9,2.6,10,6.4,16.1,9c6.1,2.6,15.8,4.8,15.8,4.8c2.5,2.6,5.9,9.4,9.1,10.6
			s6.3,3,8.6,2.9c2.3-0.1,0.1-8.4-0.6-11.5c0,0,13.3,1.4,17.9,1.2c4.6-0.2,8.7-0.8,15.8-2.4c0,0,13.3,9.2,13.5,6.4
			c0-2.3,0.2-5.7,0-7.3c-0.1-1-1-2.9-1-2.9c7.8-3.1,15-10.4,17.7-16.2c2.7-5.8,3.2-14.1,2.8-20.3c-0.6-9-4.4-20.8-2.9-23.5
			s4.2-2.8,8.1-4.6c3.9-1.7,7.8-3.8,7.8-3.8c1.1,2.8,2.5,8.4,2.5,8.4c2.1,8.6,3.8,22.6-0.9,39.1C195.9,162.9,188.4,176.7,172.8,189z
			"/>
		<g>
			<path class="st1" d="M250.7,101.5c10.5,0,16.4,5.5,16.4,15.6c0,11.7-7.6,19-20.2,19h-5.8v1.2l0.4,16.4H233l0.6-15.7l-0.6-36.5
				L250.7,101.5z M249.3,129.6c5.9-1.1,9.1-5.1,9.1-11.8c0-6.6-3.4-9.5-10-9.7l-6.9,0.2l-0.3,21.1L249.3,129.6z"/>
			<path class="st1" d="M308.1,153.7l-1.2-5.8l-2.3-7.2l-11-0.2l-10,0.2l-2.4,6.8l-1.3,6.3h-8.4l18.6-52.1h9.8l16.8,52.1H308.1z
				 M295,109.8h-0.6l-8.5,24l8.2,0.2l8.4-0.2L295,109.8z"/>
			<path class="st1" d="M363.8,104.6l-1.5,7.4l-0.8,0.2c-3.3-2.6-7.4-4.2-12-4.2c-9.5,0-14.7,6.4-14.7,19.2
				c0,13.2,5.4,20.1,14.7,20.1c4.5,0,9.3-1.6,13-4.5l0.8,0.5l-0.7,7.6c-4.5,2.2-8.8,3.4-13.8,3.4c-14.6,0-22.8-9.4-22.8-26.2
				c0-17.4,8.7-27.1,23.8-27.1C355.2,101,359.9,102.3,363.8,104.6z"/>
			<path class="st1" d="M387.4,153.7h-8.5l0.6-15.7l-0.6-36.5h8.6l-0.5,35.7L387.4,153.7z"/>
			<path class="st1" d="M416.3,124.9l8.2,0.2l8.6-0.2l0.6,0.7l-0.6,6.3l-9.3-0.2l-7.6,0.1l-0.1,5.6l0.4,16.4H408l0.6-15.7l-0.6-36.5
				h29.2l0.6,0.7l-0.7,6.6l-12.2-0.5l-8.4,0.1L416.3,124.9z"/>
			<path class="st1" d="M459,153.7h-8.5l0.6-15.7l-0.6-36.5h8.6l-0.5,35.7L459,153.7z"/>
			<path class="st1" d="M512.3,104.6l-1.5,7.4l-0.8,0.2c-3.3-2.6-7.4-4.2-12-4.2c-9.5,0-14.7,6.4-14.7,19.2
				c0,13.2,5.4,20.1,14.7,20.1c4.5,0,9.3-1.6,13-4.5l0.8,0.5l-0.7,7.6c-4.5,2.2-8.8,3.4-13.8,3.4c-14.6,0-22.8-9.4-22.8-26.2
				c0-17.4,8.7-27.1,23.8-27.1C503.7,101,508.4,102.3,512.3,104.6z"/>
			<path class="st1" d="M564.8,153.7l-6.6-22.6h-0.8l-6.5,22.6h-14l-13.7-52.4H536l0.8,7.1l7.6,31.8h0.8l7.7-26.5l-3.2-12.5H563
				l1.1,8.4l7.9,30.5h0.8l8.9-31.1l1.4-7.9h12.2l-16.6,52.4H564.8z"/>
			<path class="st1" d="M618.8,153.7h-13.2l0.7-15.5l-0.7-36.9H619l-0.7,35.6L618.8,153.7z"/>
			<path class="st1" d="M664.2,153.7h-29.5l0.7-15.5l-0.7-36.9h13.4l-0.7,35.6l0.2,6h16.7l0.8,1L664.2,153.7z"/>
			<path class="st1" d="M697.5,101c15.4,0,23.7,8.7,23.7,24.4c0,18.6-9.6,28.9-27,28.9c-4.5,0-13.2-0.3-18.8-0.6h-0.1l0.7-15.5
				l-0.7-36.9h0.1L697.5,101z M707.5,128.6c0-12.4-3.3-17.2-11-17.2c-1.6,0-5.2,0.1-7.9,0.3l-0.5,25.2l0.2,6.8
				c3,0.4,6.8,0.6,8.4,0.6C703.4,144.4,707.5,139.9,707.5,128.6z"/>
		</g>
	</g>
</g>
</svg>
